<svg width="144" height="38" viewBox="0 0 144 38" fill="none" xmlns="http://www.w3.org/2000/svg">
<path d="M137.486 19.3473C133.677 19.3473 130.973 16.4702 130.973 12.7833C130.973 9.09649 133.677 6.21938 137.486 6.21938C141.296 6.21938 144 9.09649 144 12.7833C144 16.4702 141.296 19.3473 137.486 19.3473ZM8.70812 9.50997L5.3899 19.175H4.37162L0 6.44335H1.66789L4.91587 15.9533L8.18142 6.44335H9.23482L12.5179 15.9533L15.7484 6.44335H17.4338L13.0446 19.175H12.0439L8.70812 9.50997ZM19.6811 12.0597H29.5304C29.2319 9.47552 27.3358 7.56318 24.6145 7.56318C21.8932 7.56318 19.9971 9.47552 19.6811 12.0597ZM19.6811 13.438C19.9268 16.0567 21.8405 18.0207 24.6145 18.0207C25.7908 18.0207 26.9144 17.6761 27.88 17.0042C28.2487 16.7458 28.6876 16.3668 28.9334 15.9878L29.0212 15.85H30.7242L30.4784 16.3151C30.18 16.8836 29.6181 17.4694 29.109 17.8829C27.8274 18.9338 26.2648 19.399 24.5969 19.399C20.752 19.399 18.0658 16.5046 18.0658 12.8006C18.0658 9.0965 20.752 6.18493 24.5969 6.18493C26.0541 6.18493 27.4762 6.63286 28.635 7.5115C29.4601 8.14894 30.1097 8.95867 30.5311 9.88899C30.9876 10.9055 31.1807 12.0253 31.128 13.1279L31.1105 13.4208H19.6811V13.438ZM35.0958 12.7833C35.0958 15.6777 37.0271 18.0035 40.0644 18.0035C43.1017 18.0035 45.0505 15.6604 45.0505 12.7833C45.0505 9.90622 43.1192 7.56318 40.0644 7.56318C37.0095 7.56318 35.0958 9.90622 35.0958 12.7833ZM35.0958 16.832V19.175H33.5333V0H35.0958V8.75193C35.289 8.47628 35.5172 8.21786 35.7279 7.99389C36.9042 6.80514 38.3789 6.18493 40.0644 6.18493C43.9093 6.18493 46.5955 9.07927 46.5955 12.7833C46.5955 16.5046 43.8917 19.3817 40.0644 19.3817C38.414 19.3817 36.9568 18.796 35.7805 17.6417C35.5347 17.3833 35.3065 17.1248 35.0958 16.832ZM58.1829 8.08003C59.1309 6.8396 60.5004 6.21938 62.0629 6.21938C63.1865 6.21938 64.2575 6.51226 65.1529 7.18416C66.7681 8.40737 67.2948 10.4575 67.2948 12.3699V19.1405H64.5735V12.6455C64.5735 10.9399 64.1873 8.75193 61.9927 8.75193C59.7981 8.75193 59.4118 10.9227 59.4118 12.6455V19.1405H56.7081V12.6455C56.7081 10.9399 56.3219 8.75193 54.1273 8.75193C51.9327 8.75193 51.5465 10.9227 51.5465 12.6455V19.1405H48.8252V6.42612H51.5465V6.94297C52.3365 6.42612 53.2495 6.20216 54.1975 6.20216C55.7952 6.21938 57.2173 6.80514 58.1829 8.08003ZM104.954 16.8147C105.92 16.8147 107.745 16.6252 107.745 15.3503C107.745 15.1781 107.728 14.9885 107.623 14.8335C107.236 14.1788 105.533 13.9376 104.831 13.8343C102.584 13.5414 99.7922 12.7144 99.7922 9.99236C99.7922 9.45829 99.8976 8.94144 100.126 8.47628C100.986 6.70177 103.11 6.20216 104.936 6.20216C106.411 6.20216 107.939 6.56395 109.01 7.6321C109.677 8.304 109.87 8.8553 110.045 9.59611H107.271C107.201 9.49274 107.078 9.35492 107.026 9.32046C106.481 8.8553 105.656 8.7347 104.954 8.7347C104.111 8.7347 102.514 8.87253 102.514 9.99236C102.514 10.0957 102.531 10.2163 102.584 10.3197C102.882 10.9055 104.497 11.1811 105.094 11.2672C107.552 11.629 110.449 12.3354 110.449 15.3331C110.449 16.0395 110.274 16.7114 109.87 17.3144C108.834 18.8993 106.727 19.3473 104.936 19.3473C103.374 19.3473 101.741 18.9855 100.565 17.8829C100.108 17.4522 99.6518 16.8147 99.4938 16.2117L99.406 15.8327H102.25C102.356 15.9533 102.478 16.0739 102.566 16.1428C103.233 16.6597 104.146 16.8147 104.954 16.8147ZM114.031 6.44335V3.20445H116.752V6.44335H120.334V8.95867H116.752V13.8515C116.752 14.5234 116.752 15.2297 116.875 15.8844C116.91 16.1084 116.998 16.4874 117.191 16.6425C117.349 16.7803 117.665 16.7975 117.876 16.7975C118.315 16.7975 118.753 16.7114 119.192 16.6252L120.351 16.3668V18.8649L119.666 19.0716C119.069 19.2439 118.385 19.3301 117.77 19.3301C116.928 19.3301 116.102 19.1578 115.435 18.6237C114.803 18.1068 114.487 17.4005 114.294 16.6252C114.083 15.7121 114.048 14.7818 114.048 13.8515V8.95867H111.538V6.44335H114.031ZM125.618 6.85683C126.373 6.39167 127.233 6.20216 128.129 6.20216C128.743 6.20216 129.41 6.2883 130.007 6.46058L130.674 6.66732V9.26878L129.463 8.90698C129.042 8.78639 128.568 8.7347 128.129 8.7347C127.549 8.7347 126.988 8.8553 126.566 9.26878C125.741 10.0785 125.653 11.8013 125.653 12.8695V19.1233H122.95V6.42612H125.653V6.85683H125.618ZM79.7074 7.52873V6.44335H82.4111V19.1578H79.7074V18.0552C78.6189 18.9166 77.3197 19.3473 75.8976 19.3473C72.0878 19.3473 69.3841 16.4702 69.3841 12.7833C69.3841 9.09649 72.0878 6.21938 75.8976 6.21938C77.3197 6.21938 78.6189 6.65009 79.7074 7.52873ZM79.7074 12.7833C79.7074 10.5437 78.2677 8.7347 75.8976 8.7347C73.5274 8.7347 72.0878 10.5437 72.0878 12.7661C72.0878 14.9885 73.5274 16.7975 75.8976 16.7975C78.2677 16.7975 79.7074 15.0058 79.7074 12.7833ZM87.4323 14.0065C87.8712 15.7121 89.2407 16.8147 91.0841 16.8147C91.9971 16.8147 92.8573 16.5735 93.5947 16.0395C93.6825 15.9878 93.7703 15.9189 93.8581 15.8327H97.1412L96.9481 16.2117C96.632 16.8147 96.0878 17.3833 95.5611 17.814C94.297 18.8477 92.7344 19.3301 91.0841 19.3301C87.2743 19.3301 84.5706 16.4529 84.5706 12.7661C84.5706 9.07927 87.2743 6.18493 91.0841 6.18493C92.5413 6.18493 93.9459 6.63286 95.1046 7.5115C95.9298 8.14894 96.5794 8.95867 97.0007 9.88899C97.6503 11.3017 97.6328 12.4732 97.5625 13.9721H87.4323V14.0065ZM87.4674 11.474H94.7008C94.2268 9.82008 92.8749 8.75193 91.0841 8.75193C89.2933 8.7347 87.9415 9.82008 87.4674 11.474ZM141.279 12.7833C141.279 10.5609 139.839 8.75193 137.469 8.75193C135.099 8.75193 133.659 10.5609 133.659 12.7833C133.659 15.0058 135.099 16.8147 137.469 16.8147C139.839 16.8147 141.279 15.0058 141.279 12.7833Z" fill="white"/>
<path d="M1.65565 35.1143V28.8469H3.90295C4.42821 28.8469 4.87886 28.9305 5.25491 29.0976C5.63095 29.2647 5.92044 29.5065 6.12338 29.8228C6.32633 30.1332 6.4278 30.5122 6.4278 30.9599C6.4278 31.3956 6.32633 31.7717 6.12338 32.088C5.92044 32.4044 5.63095 32.6461 5.25491 32.8132C4.87886 32.9804 4.42821 33.0639 3.90295 33.0639H1.90635L2.11227 32.8491V35.1143H1.65565ZM2.11227 32.8759L1.90635 32.6521H3.90295C4.57743 32.6521 5.08778 32.5058 5.43397 32.2134C5.78614 31.9149 5.96222 31.4971 5.96222 30.9599C5.96222 30.4167 5.78614 29.9989 5.43397 29.7064C5.08778 29.408 4.57743 29.2588 3.90295 29.2588H1.90635L2.11227 29.0349V32.8759ZM10.6037 35.1143V34.0488L10.5858 33.8876V32.1328C10.5858 31.6971 10.4664 31.3658 10.2277 31.139C9.99487 30.9121 9.65166 30.7987 9.19802 30.7987C8.8757 30.7987 8.57427 30.8554 8.29373 30.9688C8.01916 31.0763 7.78339 31.2166 7.58642 31.3897L7.36258 31.0673C7.59537 30.8584 7.87591 30.6973 8.2042 30.5839C8.53249 30.4645 8.8757 30.4048 9.23384 30.4048C9.81282 30.4048 10.2575 30.551 10.5679 30.8435C10.8783 31.136 11.0335 31.5717 11.0335 32.1507V35.1143H10.6037ZM8.92047 35.1501C8.57427 35.1501 8.27284 35.0964 8.01618 34.9889C7.76549 34.8755 7.5715 34.7173 7.43421 34.5144C7.3029 34.3114 7.23724 34.0787 7.23724 33.816C7.23724 33.5773 7.29096 33.3624 7.3984 33.1714C7.51181 32.9744 7.69684 32.8162 7.95351 32.6968C8.21017 32.5715 8.55338 32.5088 8.98314 32.5088H10.7022V32.858H8.9921C8.50862 32.858 8.16839 32.9475 7.97141 33.1266C7.78041 33.3057 7.68491 33.5295 7.68491 33.7981C7.68491 34.0966 7.79831 34.3353 8.02513 34.5144C8.25195 34.6934 8.57129 34.783 8.98314 34.783C9.37709 34.783 9.70837 34.6934 9.97697 34.5144C10.2515 34.3353 10.4545 34.0757 10.5858 33.7354L10.7111 34.0399C10.5858 34.3801 10.3709 34.6517 10.0665 34.8546C9.76806 35.0516 9.38605 35.1501 8.92047 35.1501ZM13.8936 35.159C14.2577 35.159 14.589 35.1023 14.8875 34.9889C15.1919 34.8755 15.4336 34.7143 15.6127 34.5054C15.7918 34.2965 15.8813 34.0518 15.8813 33.7713C15.8813 33.4191 15.7321 33.1385 15.4336 32.9296C15.1411 32.7207 14.7263 32.6163 14.1891 32.6163L14.1533 32.7595C14.4517 32.7595 14.7203 32.7118 14.9591 32.6163C15.2038 32.5208 15.3948 32.3894 15.5321 32.2223C15.6754 32.0492 15.747 31.8463 15.747 31.6135C15.747 31.3568 15.6634 31.139 15.4963 30.9599C15.3292 30.7749 15.1024 30.6346 14.8158 30.5391C14.5293 30.4376 14.213 30.3899 13.8668 30.3958C13.5922 30.4018 13.3206 30.4406 13.052 30.5122C12.7834 30.5839 12.5178 30.6913 12.2552 30.8345L12.3984 31.1927C12.6372 31.0614 12.8789 30.9629 13.1237 30.8972C13.3744 30.8316 13.6161 30.7957 13.8489 30.7898C14.1175 30.7898 14.3592 30.8226 14.5741 30.8883C14.795 30.9539 14.9681 31.0554 15.0934 31.1927C15.2247 31.324 15.2904 31.4852 15.2904 31.6762C15.2904 31.8493 15.2337 32.0015 15.1203 32.1328C15.0128 32.2581 14.8606 32.3536 14.6636 32.4193C14.4726 32.485 14.2518 32.5178 14.0011 32.5178H13.2669V32.858H14.019C14.4547 32.858 14.7979 32.9356 15.0486 33.0908C15.2993 33.246 15.4247 33.4639 15.4247 33.7444C15.4247 33.9354 15.362 34.1085 15.2367 34.2637C15.1113 34.4189 14.9322 34.5412 14.6994 34.6308C14.4726 34.7203 14.207 34.7651 13.9026 34.7651C13.6042 34.771 13.3057 34.7293 13.0073 34.6397C12.7088 34.5442 12.4462 34.401 12.2194 34.21L12.0493 34.5412C12.2999 34.7502 12.5894 34.9053 12.9177 35.0068C13.246 35.1083 13.5713 35.159 13.8936 35.159ZM19.8062 35.1501C19.3943 35.1501 19.0212 35.0546 18.687 34.8636C18.3587 34.6726 18.0961 34.401 17.8991 34.0488C17.7081 33.6907 17.6126 33.2669 17.6126 32.7774C17.6126 32.288 17.7081 31.8672 17.8991 31.515C18.0961 31.1569 18.3587 30.8823 18.687 30.6913C19.0212 30.5003 19.3943 30.4048 19.8062 30.4048C20.2479 30.4048 20.6418 30.5063 20.988 30.7092C21.3402 30.9062 21.6147 31.1837 21.8117 31.5419C22.0147 31.9 22.1161 32.3119 22.1161 32.7774C22.1161 33.243 22.0147 33.6549 21.8117 34.013C21.6147 34.3711 21.3402 34.6517 20.988 34.8546C20.6418 35.0516 20.2479 35.1501 19.8062 35.1501ZM17.4604 36.8512V30.4406H17.8901V31.9716L17.8185 32.7864L17.908 33.6011V36.8512H17.4604ZM19.7793 34.7472C20.1374 34.7472 20.4598 34.6666 20.7463 34.5054C21.0328 34.3383 21.2566 34.1055 21.4178 33.8071C21.5849 33.5086 21.6685 33.1654 21.6685 32.7774C21.6685 32.3835 21.5849 32.0403 21.4178 31.7478C21.2566 31.4493 21.0328 31.2195 20.7463 31.0584C20.4598 30.8913 20.1374 30.8077 19.7793 30.8077C19.4212 30.8077 19.0988 30.8913 18.8123 31.0584C18.5318 31.2195 18.308 31.4493 18.1408 31.7478C17.9797 32.0403 17.8991 32.3835 17.8991 32.7774C17.8991 33.1654 17.9797 33.5086 18.1408 33.8071C18.308 34.1055 18.5318 34.3383 18.8123 34.5054C19.0988 34.6666 19.4212 34.7472 19.7793 34.7472ZM26.4732 35.1143V34.0488L26.4553 33.8876V32.1328C26.4553 31.6971 26.3359 31.3658 26.0972 31.139C25.8644 30.9121 25.5212 30.7987 25.0675 30.7987C24.7452 30.7987 24.4438 30.8554 24.1632 30.9688C23.8887 31.0763 23.6529 31.2166 23.4559 31.3897L23.2321 31.0673C23.4649 30.8584 23.7454 30.6973 24.0737 30.5839C24.402 30.4645 24.7452 30.4048 25.1033 30.4048C25.6823 30.4048 26.127 30.551 26.4374 30.8435C26.7478 31.136 26.903 31.5717 26.903 32.1507V35.1143H26.4732ZM24.79 35.1501C24.4438 35.1501 24.1423 35.0964 23.8857 34.9889C23.635 34.8755 23.441 34.7173 23.3037 34.5144C23.1724 34.3114 23.1067 34.0787 23.1067 33.816C23.1067 33.5773 23.1605 33.3624 23.2679 33.1714C23.3813 32.9744 23.5663 32.8162 23.823 32.6968C24.0797 32.5715 24.4229 32.5088 24.8526 32.5088H26.5717V32.858H24.8616C24.3781 32.858 24.0379 32.9475 23.8409 33.1266C23.6499 33.3057 23.5544 33.5295 23.5544 33.7981C23.5544 34.0966 23.6678 34.3353 23.8946 34.5144C24.1214 34.6934 24.4408 34.783 24.8526 34.783C25.2466 34.783 25.5779 34.6934 25.8465 34.5144C26.121 34.3353 26.324 34.0757 26.4553 33.7354L26.5806 34.0399C26.4553 34.3801 26.2404 34.6517 25.936 34.8546C25.6376 35.0516 25.2555 35.1501 24.79 35.1501ZM30.7632 35.159C30.3872 35.159 30.0529 35.0934 29.7604 34.9621C29.4739 34.8307 29.2292 34.6367 29.0262 34.3801C28.8293 34.1234 28.6771 33.8071 28.5696 33.431C28.4622 33.049 28.4085 32.6103 28.4085 32.1149C28.4085 31.6314 28.4562 31.2166 28.5517 30.8704C28.6472 30.5182 28.7726 30.2227 28.9278 29.984C29.0889 29.7393 29.271 29.5393 29.4739 29.3841C29.6768 29.2289 29.8858 29.1065 30.1006 29.017C30.3215 28.9215 30.5394 28.8499 30.7542 28.8021L32.8225 28.3097L32.8941 28.7305L30.9244 29.1871C30.7871 29.2229 30.6259 29.2707 30.4409 29.3304C30.2618 29.3841 30.0768 29.4707 29.8858 29.59C29.7007 29.7034 29.5276 29.8646 29.3665 30.0735C29.2113 30.2765 29.0829 30.5391 28.9815 30.8614C28.886 31.1837 28.8382 31.5836 28.8382 32.0612C28.8382 32.1507 28.8412 32.2223 28.8472 32.276C28.8531 32.3298 28.8591 32.3894 28.8651 32.4551C28.877 32.5148 28.889 32.6043 28.9009 32.7237L28.695 32.6163C28.7308 32.2223 28.8472 31.8761 29.0441 31.5777C29.2411 31.2792 29.4978 31.0464 29.8141 30.8793C30.1305 30.7122 30.4886 30.6286 30.8885 30.6286C31.3243 30.6286 31.7093 30.7241 32.0435 30.9151C32.3838 31.1002 32.6494 31.3628 32.8404 31.703C33.0314 32.0373 33.1269 32.4253 33.1269 32.867C33.1269 33.3087 33.0284 33.7026 32.8314 34.0488C32.6404 34.395 32.3658 34.6666 32.0077 34.8636C31.6555 35.0605 31.2407 35.159 30.7632 35.159ZM30.8348 34.774C31.193 34.774 31.5093 34.6934 31.7839 34.5323C32.0644 34.3652 32.2823 34.1383 32.4375 33.8518C32.5927 33.5653 32.6703 33.24 32.6703 32.8759C32.6703 32.5118 32.5927 32.1925 32.4375 31.9179C32.2823 31.6433 32.0644 31.4285 31.7839 31.2733C31.5093 31.1121 31.19 31.0315 30.8259 31.0315C30.4677 31.0315 30.1484 31.1091 29.8679 31.2643C29.5933 31.4195 29.3784 31.6344 29.2232 31.909C29.068 32.1835 28.9904 32.5029 28.9904 32.867C28.9904 33.2311 29.068 33.5564 29.2232 33.8429C29.3844 34.1294 29.6022 34.3562 29.8768 34.5233C30.1573 34.6905 30.4767 34.774 30.8348 34.774ZM36.4598 35.1501C36.0121 35.1501 35.6122 35.0486 35.26 34.8457C34.9138 34.6427 34.6363 34.3622 34.4274 34.004C34.2244 33.6459 34.1229 33.237 34.1229 32.7774C34.1229 32.3119 34.2244 31.903 34.4274 31.5508C34.6363 31.1927 34.9138 30.9121 35.26 30.7092C35.6122 30.5063 36.0121 30.4048 36.4598 30.4048C36.9074 30.4048 37.3074 30.5063 37.6595 30.7092C38.0117 30.9121 38.2892 31.1927 38.4922 31.5508C38.6951 31.903 38.7966 32.3119 38.7966 32.7774C38.7966 33.237 38.6951 33.6459 38.4922 34.004C38.2892 34.3622 38.0117 34.6427 37.6595 34.8457C37.3074 35.0486 36.9074 35.1501 36.4598 35.1501ZM36.4598 34.7472C36.8179 34.7472 37.1402 34.6666 37.4267 34.5054C37.7132 34.3383 37.9371 34.1055 38.0982 33.8071C38.2594 33.5086 38.34 33.1654 38.34 32.7774C38.34 32.3835 38.2594 32.0403 38.0982 31.7478C37.9371 31.4493 37.7132 31.2195 37.4267 31.0584C37.1402 30.8913 36.8179 30.8077 36.4598 30.8077C36.1016 30.8077 35.7793 30.8913 35.4928 31.0584C35.2123 31.2195 34.9884 31.4493 34.8213 31.7478C34.6601 32.0403 34.5796 32.3835 34.5796 32.7774C34.5796 33.1654 34.6601 33.5086 34.8213 33.8071C34.9884 34.1055 35.2123 34.3383 35.4928 34.5054C35.7793 34.6666 36.1016 34.7472 36.4598 34.7472ZM40.9302 35.1143V30.7092L41.0556 30.8435H39.1037V30.4406H43.2044V30.8435H41.2526L41.3779 30.7092V35.1143H40.9302ZM47.6099 35.1143L45.6044 32.7774L45.9804 32.5625L48.1471 35.1143H47.6099ZM44.1629 35.1143V30.4406H44.6106V35.1143H44.1629ZM44.4673 32.9475V32.5625H45.9357V32.9475H44.4673ZM46.0073 32.8222L45.5954 32.7506L47.5114 30.4406H48.0039L46.0073 32.8222ZM52.083 35.1143V34.0488L52.0651 33.8876V32.1328C52.0651 31.6971 51.9457 31.3658 51.7069 31.139C51.4742 30.9121 51.1309 30.7987 50.6773 30.7987C50.355 30.7987 50.0536 30.8554 49.773 30.9688C49.4984 31.0763 49.2627 31.2166 49.0657 31.3897L48.8419 31.0673C49.0746 30.8584 49.3552 30.6973 49.6835 30.5839C50.0118 30.4645 50.355 30.4048 50.7131 30.4048C51.2921 30.4048 51.7368 30.551 52.0472 30.8435C52.3576 31.136 52.5127 31.5717 52.5127 32.1507V35.1143H52.083ZM50.3997 35.1501C50.0536 35.1501 49.7521 35.0964 49.4955 34.9889C49.2448 34.8755 49.0508 34.7173 48.9135 34.5144C48.7822 34.3114 48.7165 34.0787 48.7165 33.816C48.7165 33.5773 48.7702 33.3624 48.8777 33.1714C48.9911 32.9744 49.1761 32.8162 49.4328 32.6968C49.6894 32.5715 50.0327 32.5088 50.4624 32.5088H52.1815V32.858H50.4714C49.9879 32.858 49.6477 32.9475 49.4507 33.1266C49.2597 33.3057 49.1642 33.5295 49.1642 33.7981C49.1642 34.0966 49.2776 34.3353 49.5044 34.5144C49.7312 34.6934 50.0506 34.783 50.4624 34.783C50.8564 34.783 51.1876 34.6934 51.4562 34.5144C51.7308 34.3353 51.9338 34.0757 52.0651 33.7354L52.1904 34.0399C52.0651 34.3801 51.8502 34.6517 51.5458 34.8546C51.2473 35.0516 50.8653 35.1501 50.3997 35.1501ZM56.6312 35.1143V30.4406H57.0788V34.4248L60.4095 30.4406H60.8034V35.1143H60.3558V31.13L57.0251 35.1143H56.6312ZM67.3884 35.1501C66.9766 35.1501 66.6035 35.0546 66.2692 34.8636C65.9409 34.6726 65.6783 34.401 65.4813 34.0488C65.2903 33.6907 65.1948 33.2669 65.1948 32.7774C65.1948 32.288 65.2903 31.8672 65.4813 31.515C65.6783 31.1569 65.9409 30.8823 66.2692 30.6913C66.6035 30.5003 66.9766 30.4048 67.3884 30.4048C67.8301 30.4048 68.2241 30.5063 68.5703 30.7092C68.9224 30.9062 69.197 31.1837 69.394 31.5419C69.5969 31.9 69.6984 32.3119 69.6984 32.7774C69.6984 33.243 69.5969 33.6549 69.394 34.013C69.197 34.3711 68.9224 34.6517 68.5703 34.8546C68.2241 35.0516 67.8301 35.1501 67.3884 35.1501ZM65.0426 36.8512V30.4406H65.4724V31.9716L65.4008 32.7864L65.4903 33.6011V36.8512H65.0426ZM67.3616 34.7472C67.7197 34.7472 68.042 34.6666 68.3285 34.5054C68.615 34.3383 68.8389 34.1055 69 33.8071C69.1671 33.5086 69.2507 33.1654 69.2507 32.7774C69.2507 32.3835 69.1671 32.0403 69 31.7478C68.8389 31.4493 68.615 31.2195 68.3285 31.0584C68.042 30.8913 67.7197 30.8077 67.3616 30.8077C67.0034 30.8077 66.6811 30.8913 66.3946 31.0584C66.114 31.2195 65.8902 31.4493 65.7231 31.7478C65.5619 32.0403 65.4813 32.3835 65.4813 32.7774C65.4813 33.1654 65.5619 33.5086 65.7231 33.8071C65.8902 34.1055 66.114 34.3383 66.3946 34.5054C66.6811 34.6666 67.0034 34.7472 67.3616 34.7472ZM74.0555 35.1143V34.0488L74.0375 33.8876V32.1328C74.0375 31.6971 73.9182 31.3658 73.6794 31.139C73.4466 30.9121 73.1034 30.7987 72.6498 30.7987C72.3275 30.7987 72.026 30.8554 71.7455 30.9688C71.4709 31.0763 71.2351 31.2166 71.0382 31.3897L70.8143 31.0673C71.0471 30.8584 71.3277 30.6973 71.656 30.5839C71.9842 30.4645 72.3275 30.4048 72.6856 30.4048C73.2646 30.4048 73.7093 30.551 74.0196 30.8435C74.33 31.136 74.4852 31.5717 74.4852 32.1507V35.1143H74.0555ZM72.3722 35.1501C72.026 35.1501 71.7246 35.0964 71.4679 34.9889C71.2172 34.8755 71.0232 34.7173 70.886 34.5144C70.7546 34.3114 70.689 34.0787 70.689 33.816C70.689 33.5773 70.7427 33.3624 70.8501 33.1714C70.9636 32.9744 71.1486 32.8162 71.4053 32.6968C71.6619 32.5715 72.0051 32.5088 72.4349 32.5088H74.1539V32.858H72.4438C71.9604 32.858 71.6201 32.9475 71.4232 33.1266C71.2322 33.3057 71.1367 33.5295 71.1367 33.7981C71.1367 34.0966 71.2501 34.3353 71.4769 34.5144C71.7037 34.6934 72.023 34.783 72.4349 34.783C72.8288 34.783 73.1601 34.6934 73.4287 34.5144C73.7033 34.3353 73.9062 34.0757 74.0375 33.7354L74.1629 34.0399C74.0375 34.3801 73.8227 34.6517 73.5183 34.8546C73.2198 35.0516 72.8378 35.1501 72.3722 35.1501ZM78.1932 35.1501C77.7396 35.1501 77.3337 35.0486 76.9756 34.8457C76.6234 34.6427 76.3429 34.3622 76.134 34.004C75.931 33.6459 75.8295 33.237 75.8295 32.7774C75.8295 32.3119 75.931 31.9 76.134 31.5419C76.3429 31.1837 76.6234 30.9062 76.9756 30.7092C77.3337 30.5063 77.7396 30.4048 78.1932 30.4048C78.5693 30.4048 78.9095 30.4764 79.2139 30.6197C79.5243 30.7629 79.775 30.9778 79.966 31.2643L79.6347 31.5061C79.4676 31.2673 79.2587 31.0912 79.008 30.9778C78.7573 30.8644 78.4857 30.8077 78.1932 30.8077C77.8291 30.8077 77.5008 30.8913 77.2084 31.0584C76.9219 31.2195 76.695 31.4493 76.5279 31.7478C76.3667 32.0403 76.2862 32.3835 76.2862 32.7774C76.2862 33.1714 76.3667 33.5176 76.5279 33.816C76.695 34.1085 76.9219 34.3383 77.2084 34.5054C77.5008 34.6666 77.8291 34.7472 78.1932 34.7472C78.4857 34.7472 78.7573 34.6905 79.008 34.5771C79.2587 34.4636 79.4676 34.2876 79.6347 34.0488L79.966 34.2905C79.775 34.5771 79.5243 34.7919 79.2139 34.9352C78.9095 35.0784 78.5693 35.1501 78.1932 35.1501ZM84.7349 35.1143L82.7294 32.7774L83.1054 32.5625L85.2721 35.1143H84.7349ZM81.2879 35.1143V30.4406H81.7356V35.1143H81.2879ZM81.5923 32.9475V32.5625H83.0607V32.9475H81.5923ZM83.1323 32.8222L82.7204 32.7506L84.6364 30.4406H85.1289L83.1323 32.8222ZM88.7314 35.1501C88.3195 35.1501 87.9464 35.0546 87.6122 34.8636C87.2839 34.6726 87.0213 34.401 86.8243 34.0488C86.6333 33.6907 86.5378 33.2669 86.5378 32.7774C86.5378 32.288 86.6333 31.8672 86.8243 31.515C87.0213 31.1569 87.2839 30.8823 87.6122 30.6913C87.9464 30.5003 88.3195 30.4048 88.7314 30.4048C89.1731 30.4048 89.567 30.5063 89.9132 30.7092C90.2654 30.9062 90.5399 31.1837 90.7369 31.5419C90.9398 31.9 91.0413 32.3119 91.0413 32.7774C91.0413 33.243 90.9398 33.6549 90.7369 34.013C90.5399 34.3711 90.2654 34.6517 89.9132 34.8546C89.567 35.0516 89.1731 35.1501 88.7314 35.1501ZM86.3856 36.8512V30.4406H86.8153V31.9716L86.7437 32.7864L86.8332 33.6011V36.8512H86.3856ZM88.7045 34.7472C89.0626 34.7472 89.3849 34.6666 89.6715 34.5054C89.958 34.3383 90.1818 34.1055 90.343 33.8071C90.5101 33.5086 90.5937 33.1654 90.5937 32.7774C90.5937 32.3835 90.5101 32.0403 90.343 31.7478C90.1818 31.4493 89.958 31.2195 89.6715 31.0584C89.3849 30.8913 89.0626 30.8077 88.7045 30.8077C88.3464 30.8077 88.024 30.8913 87.7375 31.0584C87.457 31.2195 87.2332 31.4493 87.066 31.7478C86.9049 32.0403 86.8243 32.3835 86.8243 32.7774C86.8243 33.1654 86.9049 33.5086 87.066 33.8071C87.2332 34.1055 87.457 34.3383 87.7375 34.5054C88.024 34.6666 88.3464 34.7472 88.7045 34.7472ZM92.3122 36.887C92.0973 36.887 91.8944 36.8512 91.7034 36.7796C91.5183 36.708 91.3602 36.6035 91.2289 36.4662L91.4527 36.126C91.5721 36.2513 91.7004 36.3439 91.8377 36.4035C91.9809 36.4632 92.1421 36.4931 92.3212 36.4931C92.536 36.4931 92.7241 36.4334 92.8852 36.314C93.0524 36.1946 93.2076 35.9768 93.3508 35.6604L93.6731 34.9441L93.7358 34.8636L95.7145 30.4406H96.1711L93.7716 35.7499C93.6463 36.0365 93.509 36.2603 93.3598 36.4214C93.2165 36.5886 93.0583 36.708 92.8852 36.7796C92.7121 36.8512 92.5211 36.887 92.3122 36.887ZM93.6642 35.2307L91.4975 30.4406H91.972L93.9417 34.8367L93.6642 35.2307ZM98.1041 35.1143V30.7092L98.2295 30.8435H96.2776V30.4406H100.378V30.8435H98.4265L98.5518 30.7092V35.1143H98.1041ZM104.784 35.1143L102.778 32.7774L103.154 32.5625L105.321 35.1143H104.784ZM101.337 35.1143V30.4406H101.784V35.1143H101.337ZM101.641 32.9475V32.5625H103.11V32.9475H101.641ZM103.181 32.8222L102.769 32.7506L104.685 30.4406H105.178L103.181 32.8222ZM109.257 35.1143V34.0488L109.239 33.8876V32.1328C109.239 31.6971 109.12 31.3658 108.881 31.139C108.648 30.9121 108.305 30.7987 107.851 30.7987C107.529 30.7987 107.227 30.8554 106.947 30.9688C106.672 31.0763 106.437 31.2166 106.24 31.3897L106.016 31.0673C106.249 30.8584 106.529 30.6973 106.857 30.5839C107.186 30.4645 107.529 30.4048 107.887 30.4048C108.466 30.4048 108.911 30.551 109.221 30.8435C109.531 31.136 109.687 31.5717 109.687 32.1507V35.1143H109.257ZM107.574 35.1501C107.227 35.1501 106.926 35.0964 106.669 34.9889C106.419 34.8755 106.225 34.7173 106.087 34.5144C105.956 34.3114 105.89 34.0787 105.89 33.816C105.89 33.5773 105.944 33.3624 106.052 33.1714C106.165 32.9744 106.35 32.8162 106.607 32.6968C106.863 32.5715 107.207 32.5088 107.636 32.5088H109.355V32.858H107.645C107.162 32.858 106.822 32.9475 106.625 33.1266C106.434 33.3057 106.338 33.5295 106.338 33.7981C106.338 34.0966 106.451 34.3353 106.678 34.5144C106.905 34.6934 107.224 34.783 107.636 34.783C108.03 34.783 108.362 34.6934 108.63 34.5144C108.905 34.3353 109.108 34.0757 109.239 33.7354L109.364 34.0399C109.239 34.3801 109.024 34.6517 108.72 34.8546C108.421 35.0516 108.039 35.1501 107.574 35.1501ZM115.694 35.1501C115.241 35.1501 114.835 35.0486 114.477 34.8457C114.124 34.6427 113.844 34.3622 113.635 34.004C113.432 33.6459 113.331 33.237 113.331 32.7774C113.331 32.3119 113.432 31.9 113.635 31.5419C113.844 31.1837 114.124 30.9062 114.477 30.7092C114.835 30.5063 115.241 30.4048 115.694 30.4048C116.07 30.4048 116.41 30.4764 116.715 30.6197C117.025 30.7629 117.276 30.9778 117.467 31.2643L117.136 31.5061C116.969 31.2673 116.76 31.0912 116.509 30.9778C116.258 30.8644 115.987 30.8077 115.694 30.8077C115.33 30.8077 115.002 30.8913 114.709 31.0584C114.423 31.2195 114.196 31.4493 114.029 31.7478C113.868 32.0403 113.787 32.3835 113.787 32.7774C113.787 33.1714 113.868 33.5176 114.029 33.816C114.196 34.1085 114.423 34.3383 114.709 34.5054C115.002 34.6666 115.33 34.7472 115.694 34.7472C115.987 34.7472 116.258 34.6905 116.509 34.5771C116.76 34.4636 116.969 34.2876 117.136 34.0488L117.467 34.2905C117.276 34.5771 117.025 34.7919 116.715 34.9352C116.41 35.0784 116.07 35.1501 115.694 35.1501ZM121.708 35.1143V34.0488L121.69 33.8876V32.1328C121.69 31.6971 121.57 31.3658 121.332 31.139C121.099 30.9121 120.756 30.7987 120.302 30.7987C119.98 30.7987 119.678 30.8554 119.398 30.9688C119.123 31.0763 118.887 31.2166 118.69 31.3897L118.467 31.0673C118.699 30.8584 118.98 30.6973 119.308 30.5839C119.636 30.4645 119.98 30.4048 120.338 30.4048C120.917 30.4048 121.361 30.551 121.672 30.8435C121.982 31.136 122.137 31.5717 122.137 32.1507V35.1143H121.708ZM120.024 35.1501C119.678 35.1501 119.377 35.0964 119.12 34.9889C118.869 34.8755 118.675 34.7173 118.538 34.5144C118.407 34.3114 118.341 34.0787 118.341 33.816C118.341 33.5773 118.395 33.3624 118.502 33.1714C118.616 32.9744 118.801 32.8162 119.057 32.6968C119.314 32.5715 119.657 32.5088 120.087 32.5088H121.806V32.858H120.096C119.613 32.858 119.272 32.9475 119.075 33.1266C118.884 33.3057 118.789 33.5295 118.789 33.7981C118.789 34.0966 118.902 34.3353 119.129 34.5144C119.356 34.6934 119.675 34.783 120.087 34.783C120.481 34.783 120.812 34.6934 121.081 34.5144C121.355 34.3353 121.558 34.0757 121.69 33.7354L121.815 34.0399C121.69 34.3801 121.475 34.6517 121.17 34.8546C120.872 35.0516 120.49 35.1501 120.024 35.1501ZM123.956 35.1143V30.4406H124.404V34.4248L127.735 30.4406H128.129V35.1143H127.681V31.13L124.35 35.1143H123.956ZM126.025 29.7243C125.66 29.7243 125.359 29.6288 125.12 29.4378C124.887 29.2408 124.765 28.9693 124.753 28.6231H125.084C125.096 28.8678 125.189 29.0618 125.362 29.205C125.541 29.3483 125.762 29.4199 126.025 29.4199C126.287 29.4199 126.505 29.3483 126.678 29.205C126.857 29.0618 126.95 28.8678 126.956 28.6231H127.296C127.29 28.9693 127.168 29.2408 126.929 29.4378C126.696 29.6288 126.395 29.7243 126.025 29.7243ZM130.91 35.1143V30.7092L131.035 30.8435H129.083V30.4406H133.184V30.8435H131.232L131.358 30.7092V35.1143H130.91ZM135.786 35.1501C135.339 35.1501 134.939 35.0486 134.586 34.8457C134.24 34.6427 133.963 34.3622 133.754 34.004C133.551 33.6459 133.449 33.237 133.449 32.7774C133.449 32.3119 133.551 31.903 133.754 31.5508C133.963 31.1927 134.24 30.9121 134.586 30.7092C134.939 30.5063 135.339 30.4048 135.786 30.4048C136.234 30.4048 136.634 30.5063 136.986 30.7092C137.338 30.9121 137.616 31.1927 137.819 31.5508C138.022 31.903 138.123 32.3119 138.123 32.7774C138.123 33.237 138.022 33.6459 137.819 34.004C137.616 34.3622 137.338 34.6427 136.986 34.8457C136.634 35.0486 136.234 35.1501 135.786 35.1501ZM135.786 34.7472C136.144 34.7472 136.467 34.6666 136.753 34.5054C137.04 34.3383 137.264 34.1055 137.425 33.8071C137.586 33.5086 137.666 33.1654 137.666 32.7774C137.666 32.3835 137.586 32.0403 137.425 31.7478C137.264 31.4493 137.04 31.2195 136.753 31.0584C136.467 30.8913 136.144 30.8077 135.786 30.8077C135.428 30.8077 135.106 30.8913 134.819 31.0584C134.539 31.2195 134.315 31.4493 134.148 31.7478C133.987 32.0403 133.906 32.3835 133.906 32.7774C133.906 33.1654 133.987 33.5086 134.148 33.8071C134.315 34.1055 134.539 34.3383 134.819 34.5054C135.106 34.6666 135.428 34.7472 135.786 34.7472ZM139.581 35.1143V30.4406H141.551C142.064 30.4406 142.47 30.5421 142.768 30.745C143.067 30.948 143.216 31.2434 143.216 31.6314C143.216 32.0134 143.07 32.3029 142.777 32.4999C142.491 32.6968 142.118 32.7953 141.658 32.7953L141.783 32.661C142.333 32.661 142.736 32.7625 142.992 32.9654C143.249 33.1684 143.377 33.4668 143.377 33.8608C143.377 34.2607 143.231 34.5711 142.938 34.7919C142.652 35.0068 142.207 35.1143 141.604 35.1143H139.581ZM140.02 34.7472H141.595C142.031 34.7472 142.362 34.6755 142.589 34.5323C142.816 34.389 142.93 34.1592 142.93 33.8429C142.93 33.5206 142.828 33.2878 142.625 33.1445C142.428 32.9953 142.109 32.9207 141.667 32.9207H140.02V34.7472ZM140.02 32.5715H141.524C141.918 32.5715 142.222 32.4969 142.437 32.3477C142.658 32.1984 142.768 31.9776 142.768 31.6851C142.768 31.3926 142.658 31.1748 142.437 31.0315C142.222 30.8823 141.918 30.8077 141.524 30.8077H140.02V32.5715Z" fill="white"/>
</svg>
