<svg width="22" height="22" viewBox="0 0 22 22" fill="none" xmlns="http://www.w3.org/2000/svg">
<g clip-path="url(#clip0_1_409)">
<circle cx="11" cy="11" r="11" fill="#3292D8"/>
<path d="M16.097 6.12737C16.3103 6.12737 16.5948 6.06223 16.8081 6.19251C17.0214 6.25765 17.1636 6.51821 17.0925 6.71363C17.0214 7.43017 16.9503 8.14671 16.8081 8.86325C16.4525 11.2734 15.9548 13.6836 15.5281 16.0938C15.5281 16.2892 15.457 16.4846 15.3148 16.6149C15.0304 17.0057 14.5326 17.2012 14.0349 17.0709C13.8216 17.0057 13.6793 16.9406 13.5371 16.8103C12.0439 15.8984 10.5506 14.9864 9.05734 14.0093C8.84402 13.879 8.77291 13.5533 8.77291 13.3579C8.84402 13.0322 9.12845 12.7065 9.41288 12.5111C10.6217 11.4037 11.9728 10.4266 13.1105 9.31923C13.1816 9.25409 13.2527 9.12381 13.2527 8.99353C13.2527 8.92839 13.1105 8.92839 13.0394 8.92839C12.7549 8.99353 12.5416 9.18895 12.2572 9.31923C10.6217 10.3615 9.05734 11.4037 7.35076 12.3808C7.06633 12.5111 6.85301 12.7065 6.49747 12.7716C5.99972 12.9019 5.50196 12.8368 5.07532 12.7065C4.71978 12.6414 4.36424 12.5111 4.07981 12.4459C3.86649 12.3808 3.58206 12.2505 3.36874 12.1854C3.15541 12.1202 2.87098 11.99 2.65766 11.8597C2.51544 11.7945 2.44434 11.6643 2.44434 11.534C2.44434 11.4037 2.58655 11.3386 2.72877 11.2734C3.86649 10.7523 5.00421 10.2312 6.14193 9.77521C7.27965 9.31923 8.41738 8.86325 9.48399 8.47241C11.1906 7.82101 12.9683 7.16961 14.746 6.51821C15.2437 6.38793 15.6704 6.19251 16.097 6.12737Z" fill="white"/>
</g>
<defs>
<clipPath id="clip0_1_409">
<rect width="22" height="22" fill="white"/>
</clipPath>
</defs>
</svg>
