<svg width="22" height="22" viewBox="0 0 22 22" fill="none" xmlns="http://www.w3.org/2000/svg">
<g clip-path="url(#clip0_1_403)">
<circle cx="11" cy="11" r="11" fill="#7B32D8"/>
<path d="M10.1749 4.90761C10.6379 4.87806 11.101 4.88904 11.5641 4.90311C12.1934 4.92141 12.8228 4.99177 13.4384 5.12968C14.0127 5.25914 14.5775 5.45334 15.0955 5.74183C15.4762 5.9501 15.8224 6.23295 16.0863 6.58476C16.4421 7.05478 16.6689 7.61345 16.8241 8.18198C17.0839 9.17267 17.1374 10.2084 17.1003 11.2301C17.0825 11.7141 17.0413 12.1968 16.9863 12.6781C16.9066 13.3592 16.7238 14.0361 16.3803 14.6299C16.1639 15.0053 15.8822 15.3368 15.549 15.608C15.2948 15.8162 15.0076 15.9823 14.7094 16.1132C14.3673 16.2595 14.0072 16.3496 13.65 16.4467C12.7527 16.662 11.8265 16.745 10.9059 16.738C10.6022 16.7338 10.2985 16.7211 9.99485 16.6944C9.69529 17.0518 9.39299 17.4064 9.08794 17.7582C8.97389 17.8849 8.86945 18.0228 8.74441 18.1382C8.63998 18.2325 8.51768 18.3183 8.37615 18.331C8.21263 18.3479 8.03537 18.2747 7.95293 18.1241C7.84162 17.9243 7.8375 17.6879 7.84025 17.4655C7.8375 17.0856 7.84987 16.7056 7.84575 16.3257C7.84712 16.3003 7.82376 16.2849 7.80315 16.2806C7.29885 16.1286 6.81654 15.8838 6.41118 15.5376C6.07683 15.2498 5.79691 14.9016 5.58534 14.5103C5.27342 13.9432 5.09616 13.3085 4.99997 12.6697C4.97524 12.5008 4.95188 12.3305 4.94089 12.1602C4.92715 11.9534 4.90516 11.7479 4.90241 11.5411C4.89966 11.3722 4.89554 11.2033 4.88867 11.0344C4.89417 10.3252 4.90791 9.61454 5.01646 8.91374C5.09479 8.39447 5.22395 7.88223 5.43419 7.40237C5.60321 7.01819 5.82581 6.65653 6.1075 6.34694C6.2243 6.21606 6.35896 6.10489 6.49775 6.00076C6.99105 5.63488 7.56405 5.39987 8.14805 5.231C8.80899 5.04384 9.49192 4.94702 10.1749 4.90761ZM8.96564 6.0123C8.43249 6.12628 7.90483 6.29656 7.43077 6.57519C7.18068 6.72717 6.94021 6.90449 6.75333 7.13387C6.4524 7.49553 6.23942 7.92895 6.10338 8.38208C5.91513 9.00268 5.85055 9.65423 5.82993 10.3016C5.81482 11.129 5.78734 11.9663 5.95086 12.7811C6.04429 13.2568 6.20369 13.724 6.46065 14.1335C6.72925 14.5628 7.10307 14.9126 7.54482 15.1478C7.75368 15.2618 7.97766 15.3434 8.20439 15.4138C8.21263 15.5855 8.20576 15.7585 8.20714 15.9302C8.20988 16.4973 8.19202 17.0659 8.20164 17.633C8.20301 17.7019 8.19752 17.7751 8.23187 17.837C8.23959 17.8552 8.25225 17.8707 8.26833 17.8816C8.28441 17.8926 8.30324 17.8986 8.32256 17.899C8.3789 17.899 8.42837 17.8624 8.46822 17.8244C8.52455 17.7695 8.57677 17.709 8.62761 17.6513C9.1374 17.0645 9.61972 16.4523 10.1116 15.8486C10.1419 15.8134 10.1666 15.7698 10.2051 15.7431C10.2628 15.7402 10.3205 15.7473 10.3782 15.7501C11.472 15.7979 12.5782 15.7023 13.6362 15.4081C13.8327 15.3575 14.0292 15.3068 14.2175 15.2294C14.5981 15.076 14.9499 14.8424 15.2274 14.5328C15.5435 14.1867 15.7606 13.7575 15.9007 13.3085C16.0519 12.8259 16.1027 12.3178 16.144 11.8155C16.1911 11.2699 16.204 10.7218 16.1824 10.1746C16.1481 9.4893 16.0601 8.79975 15.8362 8.15102C15.6864 7.7204 15.4775 7.29964 15.1587 6.97457C14.9897 6.79725 14.7836 6.66357 14.5706 6.54817C14.1268 6.31457 13.6486 6.15696 13.1622 6.0486C12.5301 5.90929 11.8815 5.85159 11.2357 5.84596C10.4758 5.81388 9.71041 5.8575 8.96564 6.0123Z" fill="white"/>
<path d="M10.8811 7.29542C11.0488 7.28557 11.2178 7.30386 11.3841 7.32356C11.8897 7.39111 12.3844 7.56701 12.809 7.8569C13.2254 8.13694 13.5675 8.52675 13.8094 8.97144C14.1254 9.55544 14.2711 10.2281 14.2793 10.8923C14.2779 10.9444 14.2862 11.0007 14.2559 11.0471C14.201 11.1344 14.0663 11.1512 13.9935 11.0781C13.9468 11.0344 13.9454 10.9669 13.944 10.9078C13.9372 10.3182 13.8176 9.7229 13.5483 9.19941C13.3228 8.75588 12.9861 8.38186 12.5727 8.11584C12.0959 7.80906 11.5338 7.65285 10.9732 7.643C10.9141 7.64019 10.844 7.64441 10.7987 7.59656C10.708 7.5065 10.7492 7.31258 10.8811 7.29542Z" fill="white"/>
<path d="M8.62761 7.68944C8.78838 7.64863 8.96289 7.7204 9.06595 7.84846C9.30642 8.15102 9.54826 8.45217 9.74201 8.7885C9.81759 8.92359 9.91103 9.05024 9.955 9.20082C10.0031 9.38376 9.96736 9.60047 9.83133 9.73557C9.72552 9.83407 9.60872 9.91991 9.50017 10.0156C9.39711 10.1043 9.35863 10.252 9.3765 10.3843C9.39161 10.4659 9.42459 10.5419 9.45345 10.6179C9.63483 11.095 9.90965 11.5368 10.2724 11.89C10.5995 12.2095 10.9975 12.4428 11.4322 12.5697C11.5737 12.6077 11.7372 12.5627 11.8307 12.4459C11.9213 12.3319 12.0038 12.2109 12.0986 12.1011C12.2044 11.9815 12.372 11.9379 12.5259 11.9562C12.6304 11.966 12.7266 12.0181 12.8145 12.073C13.1635 12.2925 13.5043 12.5317 13.8107 12.8118C13.8987 12.8962 14.0017 12.975 14.0402 13.0975C14.102 13.2649 14.0443 13.4493 13.9591 13.5956C13.83 13.8123 13.6747 14.015 13.4851 14.181C13.3202 14.3218 13.1182 14.4386 12.897 14.4386C12.7499 14.4456 12.6166 14.3766 12.482 14.3274C11.9791 14.1261 11.505 13.8602 11.0447 13.5759C10.6201 13.3128 10.212 13.0215 9.8437 12.6809C9.14428 12.0378 8.59738 11.2371 8.17141 10.3829C7.96529 9.98183 7.7688 9.57233 7.62314 9.14312C7.56205 8.95291 7.57434 8.74597 7.65749 8.56474C7.77979 8.29033 7.99552 8.07503 8.2305 7.89912C8.35142 7.81215 8.47921 7.72209 8.62761 7.68944Z" fill="white"/>
<path d="M11.1422 8.18085C11.2027 8.16537 11.2673 8.17944 11.3291 8.18366C11.8183 8.23714 12.3047 8.41727 12.6785 8.75219C12.9657 9.00408 13.1786 9.34182 13.2968 9.70911C13.3953 10.0083 13.436 10.3242 13.4164 10.6393C13.4095 10.7645 13.2419 10.8152 13.1539 10.742C13.0893 10.6984 13.0866 10.6111 13.088 10.5408C13.0935 10.044 12.9382 9.53321 12.607 9.16169C12.28 8.79722 11.8114 8.59176 11.336 8.53547C11.259 8.52281 11.1752 8.52984 11.1051 8.49185C10.9966 8.42121 11.0186 8.22166 11.1422 8.18085Z" fill="white"/>
<path d="M11.3896 9.09415C11.4486 9.07585 11.5119 9.08852 11.5723 9.09415C11.8265 9.12511 12.0835 9.22221 12.2662 9.41359C12.4943 9.65423 12.5878 10.0004 12.5878 10.3297C12.5905 10.4071 12.5246 10.469 12.4545 10.4817C12.3762 10.5 12.2855 10.4535 12.2662 10.3705C12.247 10.2875 12.2525 10.2016 12.236 10.1186C12.2017 9.91175 12.1096 9.70207 11.9351 9.58246C11.7798 9.46988 11.5861 9.44736 11.4019 9.42485C11.2494 9.3967 11.2439 9.13777 11.3896 9.09415Z" fill="white"/>
</g>
<defs>
<clipPath id="clip0_1_403">
<rect width="22" height="22" fill="white"/>
</clipPath>
</defs>
</svg>
