<svg width="22" height="22" viewBox="0 0 22 22" fill="none" xmlns="http://www.w3.org/2000/svg">
<g clip-path="url(#clip0_1_406)">
<circle cx="11" cy="11" r="11" fill="#0E972C"/>
<path d="M9.69728 5.05207C10.4878 4.86117 11.3168 4.84196 12.1189 4.97264C12.6352 5.05673 13.1377 5.21015 13.6129 5.42875C14.0537 5.63259 14.4677 5.88991 14.8455 6.1949C15.214 6.48606 15.548 6.81833 15.8411 7.18527C16.1362 7.55678 16.3833 7.96399 16.5766 8.39729C16.7994 8.9006 16.9557 9.43077 17.0417 9.97445C17.0929 10.3357 17.1237 10.7022 17.1057 11.0673C17.0788 11.7066 16.9597 12.3447 16.7329 12.943C16.3908 13.8475 15.827 14.6688 15.0992 15.3055C14.7279 15.6304 14.3193 15.9099 13.882 16.1383C13.3164 16.4331 12.7067 16.6343 12.0766 16.7341C11.2912 16.8635 10.4801 16.8314 9.70496 16.6533C9.23561 16.5467 8.78208 16.3796 8.35576 16.1562C8.30707 16.1319 8.25966 16.0999 8.20328 16.0935C8.15203 16.0871 8.10206 16.1011 8.05465 16.1178C7.06933 16.4317 6.08401 16.7439 5.0987 17.0544C5.02822 17.071 4.96416 17.1159 4.88984 17.1107C4.88633 17.0815 4.89075 17.0518 4.90266 17.0249C5.24476 16.023 5.57918 15.0173 5.92513 14.0141C5.94948 13.9564 5.9341 13.8924 5.90207 13.8424C5.64049 13.4007 5.43965 12.9258 5.30498 12.4305C5.13713 11.813 5.06154 11.1672 5.09613 10.5279C5.15923 9.45128 5.51254 8.41178 6.11861 7.51967C6.63882 6.76376 7.32816 6.12316 8.12897 5.67346C8.62052 5.39489 9.14831 5.18577 9.69728 5.05207ZM10.6147 5.91688C10.3789 5.94123 10.1419 5.97198 9.91253 6.03732C9.27188 6.20515 8.6543 6.47677 8.11872 6.86753C7.76842 7.12368 7.45499 7.42674 7.18721 7.76822C6.90533 8.12695 6.67469 8.52413 6.49019 8.94052C6.27146 9.43455 6.14135 9.9632 6.1058 10.5023C6.06805 11.1097 6.13966 11.719 6.31721 12.3011C6.46573 12.783 6.68882 13.2386 6.97836 13.6515C7.00783 13.6938 7.03474 13.7412 7.03346 13.795C7.03089 13.8565 7.00271 13.9129 6.98477 13.9718C6.88355 14.269 6.78232 14.565 6.68238 14.8622C6.60422 15.0839 6.53631 15.3081 6.45431 15.5284C6.44662 15.5464 6.45431 15.5643 6.45687 15.5823C6.50044 15.5938 6.53888 15.5643 6.57988 15.5528C7.04371 15.4055 7.50754 15.2607 7.97009 15.1082C8.06234 15.08 8.15075 15.0429 8.24557 15.0224C8.33654 15.0032 8.42879 15.0365 8.50567 15.0839C9.02972 15.3965 9.60502 15.6271 10.206 15.7373C11.0606 15.8974 11.9511 15.8052 12.7698 15.5259C13.4303 15.3004 14.0334 14.933 14.5367 14.4497C15.0262 13.9808 15.4311 13.4183 15.7014 12.7956C16.023 12.0526 16.1461 11.23 16.0807 10.4241C16.0051 9.5004 15.6489 8.6074 15.0928 7.86815C14.5675 7.17246 13.8525 6.62667 13.053 6.28203C12.5112 6.05389 11.9325 5.92584 11.345 5.90407C11.1016 5.89767 10.8569 5.89126 10.6147 5.91688Z" fill="white"/>
<path d="M9.00538 7.93477C9.12838 7.91427 9.24882 7.9604 9.37183 7.95015C9.43205 7.9463 9.49611 7.94887 9.54993 7.97834C9.62552 8.01677 9.67549 8.09108 9.70496 8.16795C9.84847 8.54206 9.98813 8.91746 10.1304 9.29285C10.156 9.36972 10.1995 9.44531 10.1931 9.52859C10.1893 9.59649 10.1534 9.65543 10.1214 9.71308C10.0381 9.85529 9.92535 9.97701 9.81003 10.0936C9.75622 10.1513 9.69343 10.2025 9.65756 10.2742C9.62681 10.3383 9.66012 10.4075 9.69087 10.4639C9.89972 10.8457 10.156 11.2031 10.4661 11.508C10.7549 11.7942 11.0875 12.0325 11.4514 12.214C11.5308 12.255 11.6154 12.2857 11.691 12.3331C11.7448 12.3639 11.8063 12.3908 11.8704 12.3882C11.9269 12.3839 11.9799 12.3588 12.019 12.3178C12.1997 12.1384 12.3649 11.9449 12.5251 11.7476C12.5661 11.7002 12.6084 11.6477 12.6686 11.6259C12.7352 11.6041 12.8031 11.6336 12.8646 11.6592C13.2747 11.8463 13.6667 12.0692 14.0639 12.2806C14.1152 12.3075 14.1677 12.3395 14.1959 12.3921C14.2292 12.4536 14.2279 12.5253 14.2241 12.5919C14.2074 12.8149 14.1408 13.0365 14.0127 13.221C13.8922 13.3953 13.7231 13.5323 13.5348 13.6271C13.3413 13.7245 13.1312 13.7847 12.9172 13.818C12.7704 13.8407 12.6208 13.8377 12.4751 13.8091C12.3457 13.7847 12.2214 13.7386 12.0971 13.6989C11.6154 13.5413 11.14 13.353 10.7057 13.0903C10.3593 12.8786 10.0389 12.6271 9.75109 12.3408C9.41923 12.0141 9.13094 11.6464 8.86443 11.2672C8.70666 11.0405 8.56082 10.8057 8.42751 10.5638C8.33182 10.3963 8.25572 10.2183 8.20072 10.0334C8.14562 9.84889 8.10206 9.65927 8.09309 9.46709C8.08668 9.10195 8.18791 8.7304 8.39932 8.4306C8.49007 8.30146 8.59684 8.18436 8.71708 8.08211C8.79781 8.00652 8.89647 7.95105 9.00538 7.93477Z" fill="white"/>
</g>
<defs>
<clipPath id="clip0_1_406">
<rect width="22" height="22" fill="white"/>
</clipPath>
</defs>
</svg>
