<svg width="14" height="14" viewBox="0 0 14 14" fill="none" xmlns="http://www.w3.org/2000/svg">
<path d="M3.49984 7.06038C3.49984 7.70472 2.9775 8.22705 2.33317 8.22705C1.68884 8.22705 1.1665 7.70472 1.1665 7.06038C1.1665 6.41605 1.68884 5.89372 2.33317 5.89372C2.9775 5.89372 3.49984 6.41605 3.49984 7.06038Z" stroke="#2C2C35" stroke-width="0.7"/>
<path d="M8.16651 7.06038C8.16651 7.70472 7.64417 8.22705 6.99984 8.22705C6.35551 8.22705 5.83317 7.70472 5.83317 7.06038C5.83317 6.41605 6.35551 5.89372 6.99984 5.89372C7.64417 5.89372 8.16651 6.41605 8.16651 7.06038Z" stroke="#2C2C35" stroke-width="0.7"/>
<path d="M12.8332 7.06038C12.8332 7.70472 12.3108 8.22705 11.6665 8.22705C11.0222 8.22705 10.4998 7.70472 10.4998 7.06038C10.4998 6.41605 11.0222 5.89372 11.6665 5.89372C12.3108 5.89372 12.8332 6.41605 12.8332 7.06038Z" stroke="#2C2C35" stroke-width="0.7"/>
<path d="M3.49984 2.39372C3.49984 3.03805 2.9775 3.56038 2.33317 3.56038C1.68884 3.56038 1.1665 3.03805 1.1665 2.39372C1.1665 1.74939 1.68884 1.22705 2.33317 1.22705C2.9775 1.22705 3.49984 1.74939 3.49984 2.39372Z" stroke="#2C2C35" stroke-width="0.7"/>
<path d="M8.16651 2.39372C8.16651 3.03805 7.64417 3.56038 6.99984 3.56038C6.35551 3.56038 5.83317 3.03805 5.83317 2.39372C5.83317 1.74939 6.35551 1.22705 6.99984 1.22705C7.64417 1.22705 8.16651 1.74939 8.16651 2.39372Z" stroke="#2C2C35" stroke-width="0.7"/>
<path d="M12.8332 2.39372C12.8332 3.03805 12.3108 3.56038 11.6665 3.56038C11.0222 3.56038 10.4998 3.03805 10.4998 2.39372C10.4998 1.74939 11.0222 1.22705 11.6665 1.22705C12.3108 1.22705 12.8332 1.74939 12.8332 2.39372Z" stroke="#2C2C35" stroke-width="0.7"/>
<path d="M3.49984 11.7271C3.49984 12.3714 2.9775 12.8937 2.33317 12.8937C1.68884 12.8937 1.1665 12.3714 1.1665 11.7271C1.1665 11.0827 1.68884 10.5604 2.33317 10.5604C2.9775 10.5604 3.49984 11.0827 3.49984 11.7271Z" stroke="#2C2C35" stroke-width="0.7"/>
<path d="M8.16651 11.7271C8.16651 12.3714 7.64417 12.8937 6.99984 12.8937C6.35551 12.8937 5.83317 12.3714 5.83317 11.7271C5.83317 11.0827 6.35551 10.5604 6.99984 10.5604C7.64417 10.5604 8.16651 11.0827 8.16651 11.7271Z" stroke="#2C2C35" stroke-width="0.7"/>
<path d="M12.8332 11.7271C12.8332 12.3714 12.3108 12.8937 11.6665 12.8937C11.0222 12.8937 10.4998 12.3714 10.4998 11.7271C10.4998 11.0827 11.0222 10.5604 11.6665 10.5604C12.3108 10.5604 12.8332 11.0827 12.8332 11.7271Z" stroke="#2C2C35" stroke-width="0.7"/>
</svg>
