<svg width="12" height="10" viewBox="0 0 12 10" fill="none" xmlns="http://www.w3.org/2000/svg">
<path d="M6.00016 8.26651C6.19346 8.26651 6.35016 8.1098 6.35016 7.91651C6.35016 7.72321 6.19346 7.5665 6.00016 7.5665V8.26651ZM1.3335 7.5665C1.1402 7.5665 0.983496 7.7232 0.983496 7.9165C0.983496 8.1098 1.1402 8.2665 1.3335 8.2665L1.3335 7.5665ZM6.00016 1.73317C5.80686 1.73317 5.65016 1.88987 5.65016 2.08317C5.65016 2.27647 5.80686 2.43317 6.00016 2.43317V1.73317ZM10.6668 2.43317C10.8601 2.43317 11.0168 2.27647 11.0168 2.08317C11.0168 1.88987 10.8601 1.73317 10.6668 1.73317V2.43317ZM6.00016 7.5665L1.3335 7.5665L1.3335 8.2665L6.00016 8.26651V7.5665ZM6.00016 2.43317L10.6668 2.43317V1.73317L6.00016 1.73317V2.43317ZM0.983496 2.08317C0.983496 2.9208 1.66253 3.59984 2.50016 3.59984V2.89984C2.04913 2.89984 1.6835 2.5342 1.6835 2.08317H0.983496ZM2.50016 3.59984C3.33779 3.59984 4.01683 2.9208 4.01683 2.08317H3.31683C3.31683 2.5342 2.9512 2.89984 2.50016 2.89984V3.59984ZM4.01683 2.08317C4.01683 1.24554 3.33779 0.566504 2.50016 0.566504V1.2665C2.9512 1.2665 3.31683 1.63214 3.31683 2.08317H4.01683ZM2.50016 0.566504C1.66253 0.566504 0.983496 1.24554 0.983496 2.08317H1.6835C1.6835 1.63214 2.04913 1.2665 2.50016 1.2665V0.566504ZM11.0168 7.91651C11.0168 7.07887 10.3378 6.39984 9.50016 6.39984L9.50016 7.09984C9.95119 7.09984 10.3168 7.46547 10.3168 7.9165L11.0168 7.91651ZM9.50016 6.39984C8.66253 6.39984 7.9835 7.07887 7.9835 7.9165L8.6835 7.91651C8.6835 7.46547 9.04913 7.09984 9.50016 7.09984L9.50016 6.39984ZM7.9835 7.9165C7.9835 8.75414 8.66253 9.43317 9.50016 9.43317L9.50016 8.73317C9.04913 8.73317 8.6835 8.36754 8.6835 7.91651L7.9835 7.9165ZM9.50016 9.43317C10.3378 9.43317 11.0168 8.75414 11.0168 7.91651L10.3168 7.9165C10.3168 8.36754 9.95119 8.73317 9.50016 8.73317L9.50016 9.43317Z" fill="#2D264B"/>
</svg>
