<svg width="12" height="20" viewBox="0 0 12 20" fill="none" xmlns="http://www.w3.org/2000/svg">
<path d="M1.52851 0H10.4715C10.7847 0.0476563 11.0777 0.239844 11.2152 0.530078C11.3375 0.763672 11.3121 1.03437 11.3129 1.28906C11.3125 6.39297 11.3125 11.4973 11.3129 16.6016C11.3094 17.4348 11.318 18.268 11.309 19.1004C11.2976 19.5562 10.9168 19.9426 10.4715 20H1.45312C1.19648 19.9129 0.944135 19.7676 0.812103 19.5211C0.658979 19.2793 0.687494 18.9836 0.687103 18.7109C0.688275 12.7855 0.685931 6.85977 0.688275 0.934375C0.681244 0.466797 1.07148 0.0574219 1.52851 0ZM1.31327 1.87578C1.31249 7.18789 1.3121 12.5 1.31327 17.8121C4.43788 17.8125 7.56249 17.8129 10.6867 17.8117C10.6875 12.5 10.6879 7.18789 10.6867 1.87578C7.5621 1.87461 4.43749 1.87461 1.31327 1.87578ZM5.81991 18.3059C5.56483 18.3844 5.36952 18.6359 5.37538 18.9062C5.36835 19.2379 5.66601 19.5402 5.9996 19.5309C6.36132 19.5441 6.6785 19.1852 6.61991 18.8273C6.58475 18.4563 6.1746 18.1895 5.81991 18.3059Z" fill="#5B819A"/>
<path d="M2.49763 2.82673C2.60583 2.78806 2.72302 2.80095 2.83591 2.79822C3.14841 2.80447 3.46169 2.7904 3.77419 2.80408C3.97223 2.81658 4.13122 3.00369 4.12341 3.20017C4.12692 3.56658 4.12692 3.93337 4.12262 4.29978C4.12145 4.50329 3.93552 4.67947 3.73278 4.67322C3.3695 4.67517 3.00583 4.67556 2.64216 4.67322C2.43942 4.67947 2.25466 4.5029 2.2527 4.29978C2.24606 3.93337 2.25075 3.56697 2.25075 3.20056C2.24567 3.04001 2.3488 2.88572 2.49763 2.82673Z" fill="#5B819A"/>
<path d="M5.31015 2.82725C5.41836 2.78896 5.53554 2.80107 5.64843 2.79834C5.94804 2.80264 6.24765 2.79521 6.54726 2.80107C6.75976 2.79561 6.94609 2.98896 6.93593 3.20068C6.93789 3.56709 6.94101 3.9335 6.93476 4.2999C6.93242 4.50264 6.74726 4.6792 6.54492 4.67334C6.18164 4.67568 5.81836 4.67529 5.45507 4.67334C5.23632 4.68115 5.04843 4.47646 5.0625 4.26084C5.06328 3.90732 5.05937 3.55381 5.06367 3.20068C5.05859 3.04014 5.16132 2.88584 5.31015 2.82725Z" fill="#5B819A"/>
<path d="M8.12265 2.82725C8.21797 2.79248 8.32227 2.80029 8.42227 2.79834C8.73477 2.80264 9.04766 2.79521 9.36016 2.80146C9.55782 2.796 9.73907 2.96553 9.74571 3.16318C9.7586 3.47568 9.74415 3.78857 9.75118 4.10146C9.74883 4.23545 9.76641 4.38584 9.68165 4.50068C9.61172 4.60889 9.48594 4.67451 9.35743 4.67334C8.99414 4.67529 8.63047 4.67568 8.26719 4.67334C8.06523 4.67881 7.8789 4.50303 7.87773 4.2999C7.87148 3.93389 7.87461 3.56709 7.87617 3.20068C7.87109 3.04014 7.97304 2.88506 8.12265 2.82725Z" fill="#5B819A"/>
<path d="M2.49764 5.63975C2.60584 5.60147 2.72342 5.61357 2.83592 5.61084C3.13553 5.61514 3.43514 5.60772 3.73475 5.61357C3.94686 5.60811 4.13319 5.80107 4.12342 6.01279C4.12537 6.3792 4.1285 6.746 4.12225 7.1124C4.1203 7.31475 3.93514 7.4917 3.7328 7.48584C3.36912 7.48818 3.00545 7.48779 2.64178 7.48584C2.50311 7.48857 2.37108 7.40928 2.30311 7.28936C2.23943 7.18936 2.25076 7.06592 2.24881 6.95303C2.2535 6.63975 2.24529 6.32646 2.25115 6.01318C2.24647 5.85264 2.34881 5.69834 2.49764 5.63975Z" fill="#5B819A"/>
<path d="M5.31054 5.63975C5.40586 5.60498 5.50937 5.61279 5.60937 5.61084C5.92226 5.61514 6.23476 5.60732 6.54765 5.61357C6.74531 5.6085 6.92656 5.77764 6.9332 5.97568C6.94609 6.28818 6.93164 6.60108 6.93867 6.91397C6.93593 7.04795 6.95429 7.19795 6.86914 7.3128C6.79297 7.4335 6.64883 7.49444 6.50898 7.4874C6.15781 7.48545 5.80625 7.48936 5.45508 7.48584C5.25273 7.4917 5.0664 7.31553 5.06523 7.1124C5.05898 6.746 5.06211 6.37959 5.06367 6.01318C5.0582 5.85225 5.16054 5.69717 5.31054 5.63975Z" fill="#5B819A"/>
<path d="M8.12265 5.6398C8.23085 5.60113 8.34804 5.61324 8.46093 5.6109C8.76054 5.61598 9.06054 5.60699 9.36015 5.61363C9.55703 5.60934 9.74023 5.7773 9.7457 5.97574C9.75586 6.34137 9.74843 6.70738 9.74921 7.0734C9.75664 7.22418 9.67265 7.37535 9.5371 7.44371C9.43476 7.49723 9.31523 7.4859 9.2039 7.48785C8.88046 7.48277 8.55663 7.49332 8.23359 7.48355C8.02734 7.47535 7.86288 7.27574 7.87538 7.07301C7.8746 6.71988 7.87343 6.36637 7.87577 6.01324C7.87148 5.85269 7.97343 5.6984 8.12265 5.6398Z" fill="#5B819A"/>
<path d="M2.49762 8.45252C2.61872 8.41111 2.74919 8.42713 2.87497 8.424C3.17458 8.42908 3.47497 8.41619 3.77419 8.42986C3.97263 8.4408 4.12849 8.63143 4.12341 8.82557C4.12771 9.17908 4.12458 9.5326 4.12497 9.88611C4.13161 10.0373 4.04685 10.1869 3.91208 10.2564C3.80974 10.3103 3.69021 10.2986 3.57849 10.301C3.26638 10.2963 2.95427 10.3033 2.64255 10.2986C2.4402 10.3045 2.25348 10.1283 2.2527 9.92518C2.24645 9.55877 2.24958 9.19236 2.25114 8.82596C2.24606 8.66541 2.34801 8.51033 2.49762 8.45252Z" fill="#5B819A"/>
<path d="M5.31016 8.45277C5.41836 8.4141 5.53555 8.42542 5.64844 8.42347C5.94805 8.42855 6.24805 8.41918 6.54766 8.42621C6.74453 8.4223 6.92774 8.58988 6.93321 8.78792C6.94336 9.15355 6.93594 9.51995 6.93672 9.88597C6.95196 10.1024 6.76406 10.3063 6.54531 10.2985C6.18164 10.3008 5.81836 10.3008 5.45508 10.2985C5.25234 10.3047 5.06602 10.1285 5.06484 9.92503C5.05899 9.55862 5.0625 9.19222 5.06328 8.82581C5.05899 8.66527 5.16094 8.51097 5.31016 8.45277Z" fill="#5B819A"/>
<path d="M2.53594 15.0165C2.82891 14.9782 3.12696 15.0102 3.42188 15.0001C3.58711 15.0075 3.76641 14.9704 3.92032 15.0485C4.0586 15.1184 4.13243 15.2758 4.12461 15.427C4.12383 15.7805 4.12891 16.134 4.12266 16.4872C4.12696 16.6942 3.94415 16.8774 3.73711 16.8727C3.37071 16.8778 3.0043 16.8762 2.6379 16.8731C2.43086 16.8774 2.24844 16.6938 2.25157 16.4872C2.24883 16.1208 2.24727 15.754 2.25196 15.3879C2.25079 15.2188 2.37071 15.0571 2.53594 15.0165Z" fill="#5B819A"/>
<path d="M5.34845 15.0158C5.64142 14.9795 5.93947 15.0088 6.23439 14.9994C6.39142 15.0065 6.55704 14.9764 6.70704 15.0354C6.85939 15.0987 6.94572 15.2658 6.93751 15.4272C6.93829 15.767 6.93751 16.1076 6.93751 16.4479C6.9422 16.5885 6.88204 16.7365 6.75822 16.8115C6.6379 16.8908 6.4879 16.8737 6.35158 16.876C6.03869 16.8686 5.72579 16.8842 5.41329 16.8697C5.22033 16.8572 5.06095 16.6799 5.06486 16.4869C5.06017 16.1205 5.06095 15.7537 5.06447 15.3873C5.0633 15.2182 5.18283 15.0561 5.34845 15.0158Z" fill="#5B819A"/>
<path d="M8.16092 15.016C8.45389 14.9777 8.75194 15.0113 9.04686 14.9996C9.22069 15.0078 9.41405 14.966 9.5703 15.0633C9.69491 15.1375 9.75546 15.2855 9.7496 15.427C9.74999 15.7805 9.75272 16.134 9.74804 16.4871C9.75233 16.6945 9.56952 16.8773 9.36249 16.8727C8.99608 16.8766 8.62928 16.877 8.26288 16.8731C8.05545 16.8777 7.87303 16.6938 7.87694 16.4871C7.87108 16.134 7.87616 15.7805 7.87499 15.4273C7.86327 15.2457 7.97967 15.0598 8.16092 15.016Z" fill="#5B819A"/>
</svg>
